<svg width="270" height="270" viewBox="0 0 270 270" fill="none" xmlns="http://www.w3.org/2000/svg">
<rect width="270" height="270" fill="#081EFB"/>
<path d="M87.3523 94.054C87.2468 94.1595 87.1875 94.3026 87.1875 94.4517V189.329C87.1875 189.62 87.4102 189.863 87.7006 189.889L123.75 193.07V133.827C123.75 133.678 123.809 133.534 123.915 133.429L137.572 119.772C137.72 119.624 137.938 119.57 138.137 119.633L182.812 133.594V94.6342C182.812 94.3873 182.651 94.1692 182.415 94.0966L174.375 91.6226L160.312 87.2957L110.011 71.8183C109.812 71.7571 109.595 71.8109 109.448 71.9582L87.3523 94.054Z" fill="#F9FAFA"/>
<path d="M174.375 72.2812C174.375 71.9706 174.123 71.7188 173.812 71.7188H160.875C160.564 71.7188 160.312 71.9706 160.312 72.2812V87.2957L174.375 91.6226V72.2812Z" fill="#F9FAFA"/>
<path d="M138.137 119.633C137.938 119.57 137.72 119.624 137.572 119.772L123.915 133.429C123.809 133.534 123.75 133.678 123.75 133.827V193.07L146.25 195.055V159.139C146.25 158.99 146.309 158.847 146.415 158.742L154.45 150.706C154.596 150.56 154.811 150.506 155.009 150.565L182.812 158.906V133.594L138.137 119.633Z" fill="#AFB5FE"/>
<path d="M155.009 150.565C154.811 150.506 154.596 150.56 154.45 150.706L146.415 158.742C146.309 158.847 146.25 158.99 146.25 159.139V195.055L182.201 198.227C182.529 198.256 182.812 197.997 182.812 197.667V158.906L155.009 150.565Z" fill="#5E6BFD"/>
</svg>
